<svg version="1" xmlns="http://www.w3.org/2000/svg" width="552" height="552" viewBox="0 0 414.000000 414.000000"><path d="M342.7 101.3c-.3 1.7-.2 3.5.2 3.9.6.6 4.7 1.5 8 1.7 1.1.1 1.2 1.4.7 6.3-.3 3.5-.8 7.4-1.1 8.8-.2 1.4-.6 4.3-.9 6.6-.2 2.2-.7 5.6-1 7.5-.3 1.9-.8 5.4-1.1 7.9-1.4 11.6-1.8 14.6-2.1 16-.1.8-.3 2.6-.3 3.9-.1 2.2-.4 2.3-5 1.7-5.2-.6-6.1 0-6.1 4.9 0 2 .6 2.3 5.8 2.9 3.1.4 7.3.9 9.2 1.1 1.9.3 4.4.7 5.5.9 10.6 2.4 25.2 2.5 32.2.2 14.3-4.8 24.4-22.8 23-41.1-1.3-17.7-13.2-28.8-34.2-32-9.1-1.4-17.6-2.5-22.6-3-3-.3-6.4-.8-7.5-1-1.8-.4-2.3.1-2.7 2.8zm37 10.3c6.4 1.7 10.2 4.1 13.9 8.9 9.2 12 4.8 36.7-8.1 45.2-6.6 4.4-10.6 4.8-25.3 2.8l-5.4-.8.7-5.4c.4-3 .8-6.5 1-7.7.2-1.1 1.3-8.9 2.5-17.1 2.3-16.1 3-21.1 3.5-23.5.2-.8.4-2.3.4-3.4.1-1.6.7-1.8 5.7-1.1 3.1.4 8.1 1.3 11.1 2.1zM66.3 99.8c-1.8.3-2 .7-1.3 3.3 1 3.2.4 3.6-2.5 1.5-3.6-2.5-11.9-4.3-18.5-4.1-23.5.7-40.6 17.5-39.9 39.2.6 19.4 14.8 36.9 31.4 38.9 1.7.2 4.4.5 6 .7 7.4.9 21.5-3.4 28.4-8.7 3.7-2.8 12.1-13.4 12.1-15.3 0-1.2-4.9-4.3-6.8-4.3-.5 0-2.5 2.4-4.5 5.4-13.1 19.7-42 18.5-51.7-2.1-8.6-18.4-2.5-37.1 14.2-43.4 10-3.7 19.9-2.8 28.5 2.7 4.7 3 5.2 3.7 5.8 7.8.6 3.5 1.2 4.6 2.5 4.6 2.7 0 7.2-1.9 6.7-2.7-.3-.5-.8-3.5-1.2-6.8-1.9-17.3-1.8-17-4.5-17-1.4-.1-3.5.1-4.7.3zM172.7 103.6c-.2.2-4.6.5-9.8.8-5.1.2-10 .4-10.7.5-.8.1-1.2 1.1-1 2.8.2 2.3.8 2.8 3.1 2.8 1.5-.1 2.7.5 2.7 1.1 0 1.3-4 14.5-8.5 27.9-2 6.1-2.6 7-5 7.3-2.3.3-2.6.7-2.3 3.5l.3 3.1 7-.4c3.9-.1 8.7-.3 10.8-.3 3.7-.1 4-.3 4-3.2 0-3.3-.4-3.6-3.7-3.4-1.9.2-3.7.1-4-.2-.3-.3-.1-2.2.5-4.2.7-2.8 1.5-3.7 3.2-3.8 1.2 0 5.2-.2 8.9-.4l6.7-.3 1.5 3.9c.9 2.2 1.6 4 1.6 4.2 0 .1-1.7.3-3.7.5-4.3.3-4 .1-4.5 3.2l-.3 2.5h23v-3c0-2.4-.4-3-2.3-3.1-1.2-.1-2.6-.4-2.9-.8-.4-.4-3.8-8.2-7.5-17.4l-6.7-16.7 3-.3c2.5-.3 2.9-.8 2.9-3.3 0-1.6-.3-2.9-.7-3-.5 0-1.8-.2-3.1-.3-1.2-.2-2.3-.1-2.5 0zm-2.2 21l2.3 6.2-6.5.4c-3.6.2-6.7 0-6.8-.3-.4-.5 3.6-14.3 5.1-17.9.7-1.6 1.6.2 5.9 11.6zM194.7 105.6c-.5 3 .3 4.1 3.3 4.1 5.9 0 5.5-1.1 5.5 17.8V145h-4.3c-4.3 0-4.3 0-4 3.2l.3 3.2 12.8.1c9.5 0 12.7-.3 12.8-1.2.5-5.3.9-4.9-5.6-5.2l-3.5-.1.1-7.9.1-7.9h4c3.4-.1 3.9.2 3.8 2.1-.4 4.2-.1 4.7 3.2 4.4l3.2-.2.3-8.7c.2-9-.2-10-4.3-9.4-1.3.2-2 1.3-2.2 3.2-.3 2.8-.5 2.9-4.2 2.6l-3.9-.4.2-6.6.2-6.7 5 .2c2.8.1 6.9.2 9.3.2 4.1.1 4.2.1 4.2 3.7 0 3.4.1 3.5 3.3 3.2 3.2-.3 3.2-.3 3.5-6.6.2-3.4-.1-6.3-.5-6.3-.4-.1-10.1-.2-21.5-.4l-20.6-.2-.5 2.3zM243.2 110.9c-.1 4 .3 7.2.8 7.2 5.1.7 5.5.5 6-3.6.5-4 .5-4 4.8-4 2.3 0 4.3.4 4.3 1 .2 1.2-.2 10.7-.6 18-.2 2.7-.4 7.7-.4 11l-.1 6h-4.6c-4.1 0-4.7.3-5 2.2-.5 3 1 3.7 8.6 4 3.6.1 9 .4 12.2.6 5.2.4 5.7.3 6.1-1.9.6-3.3-.3-4.2-4.8-4.6l-3.9-.3.3-6c.7-18.5 1.2-26.2 1.7-27.8.5-1.4 1.3-1.7 4.1-1.2 4.9.7 5.2 1.1 4.6 4.9-.5 3.1-.3 3.4 2.6 3.8 1.8.3 3.4.1 3.8-.4.3-.5.7-3.8.9-7.4.3-4.7.1-6.4-.8-6.5-.7 0-4-.2-7.3-.4-3.3-.1-12.1-.6-19.6-1l-13.5-.6-.2 7zM110.9 107.4c-.2.2-4.4.7-9.4 1-13.6 1-16.5 1.6-16.5 3.5 0 3.1 1.7 4.4 4.9 3.9 1.7-.3 3.5 0 4 .6s1.2 4.7 1.6 9.1c.3 4.4.8 9.3 1 11 .2 1.6.7 5.6 1 8.7l.6 5.7-3.8.3c-3.5.3-3.8.5-3.8 3.3 0 3.4.1 3.4 13.5 2 4.1-.4 8.1-.8 8.8-.8.8 0 1.2-1.1 1-3.1-.3-2.9-.6-3.1-3.8-2.9-3.5.2-3.5.2-3.8-4.5-.1-2.6-.5-5.9-.8-7.5-1.2-5.6 1.7-3.5 14.8 11.5 4.1 4.6 5.5 5.6 7.7 5.3 1.4-.2 4.3-.4 6.4-.4 3.7-.1 3.8-.2 3.5-3.4-.3-3.1-.5-3.2-4.3-3-3.7.1-4.4-.3-10.1-6.5l-6.2-6.7 3.6-1.6c7.9-3.5 11-11.1 7.5-17.8-2.6-4.9-6.2-7.2-12-7.6-2.8-.2-5.2-.3-5.4-.1zm7.6 8.6c.9 1 1.7 3.3 1.7 5.1.1 3.8-3 6.8-7.1 7-1.4.1-3.8.2-5.3.3-3 .3-3.5-.9-4.1-9.8-.2-4-.2-4 3.8-4.4 2.2-.2 4.1-.5 4.3-.6.8-.8 5.3.8 6.7 2.4zM290.9 107.9c-.5 4.5-.4 4.6 3.9 4.9l4.3.3-.5 6.2c-.3 3.4-.8 9.6-1.2 13.7-.3 4.1-.8 8.6-.9 10-.2 1.4-.4 3.3-.4 4.4-.1 1.6-.7 1.8-3.6 1.3-3.5-.6-4.7.2-5.2 3.5-.4 2.3.5 2.5 22.2 4.3 8.8.7 17.1 1.7 17.7 2.1.7.5 1.5-2.9 2.2-10.4.5-3.9.3-4.2-2-4.2-1.3 0-2.7-.1-3.1-.3-.4-.1-.9.7-1.1 1.8-.7 5-1.3 6.4-2.5 6-1.2-.5-8-1.2-13.1-1.4l-2.9-.1.7-6.8c.3-3.7.6-7.3.6-8 0-1.4 3.8-1.6 5.8-.3.8.5 1.2 2 1 3.6-.3 2.6 0 2.9 3 3.2 2.8.4 3.2.1 3.3-1.9.1-1.3.3-3.2.5-4.3.2-1.1.5-4.4.8-7.3l.5-5.2h-3.5c-2.9 0-3.4.3-3.4 2.3 0 3.1-.4 3.4-4 2.9l-3.1-.4.4-6.7.5-6.6 6 .3c3.3.2 6.8.5 7.8.7 1.1.2 2.2.4 2.7.4.4.1.7 1.6.7 3.5 0 2.8.4 3.4 2.4 3.8 1.4.3 2.9.2 3.4-.1 1-.6 2.2-13.1 1.2-12.8-.6.1-15.8-1.4-18-1.8-.8-.2-6.3-.6-12.2-1-7.7-.5-10.8-.4-10.9.4zM196.6 177.8c-1 .2-2.8 1.2-3.8 2.2-1.1 1-3.5 2.1-5.3 2.4-1.8.4-6.2 2.2-9.8 4.1-3.6 1.9-7.4 3.5-8.4 3.5s-4.3-2.2-7.3-5c-3-2.7-5.9-4.8-6.5-4.6-1.7.5-.5 6 2 8.6 2.9 3.1 6.7 11.7 5.5 12.5-.5.3 0 1.5 1.1 2.6 1.4 1.4 2.4 1.7 3.7 1.1.9-.5 2.2-.8 2.7-.6.6.2 1-.9 1-2.5 0-2.2-.4-2.8-1.7-2.6-2.5.5-2.3-1.2.2-2 1.1-.4 4.6-.8 7.8-1.1 6-.4 14.8-2.9 15.7-4.5 1.1-1.6 2.2-.9 2.3 1.3 0 1.3.3 4.9.6 8.1.7 5.7.6 5.9-2.9 9.8-3.2 3.6-7.2 9.1-12.8 17.9-1.6 2.6-1.7 3.2-.3 6.4.8 2 2 3.7 2.5 3.7.6.1 1.5.2 2 .3.5 0 2.2 1.2 3.8 2.6 5.1 4.5 10.8 8.7 13.9 10.3 4 2.1 4.4 3.9 2.8 11.8-.8 3.5-1.2 7-.9 7.7.9 2.4 5-1.5 6.8-6.5 2-5.4 5.9-10.3 8.1-10.3.9 0 1.3-.6 1-1.4-.3-.8 0-1.7.6-2.1.7-.4.2-1.6-1.6-3.2-2.4-2.2-2.8-2.3-3.6-.9-.5.9-1.3 1.4-1.9 1.1-1.3-.9-1.1.9.3 2.3 1.6 1.6-.4 1.6-2.3-.1-.8-.6-2.8-3.1-4.3-5.4-3.7-5.5-9-11-11.6-11.8-1.9-.6-2.8-2.5-1.2-2.5.4 0 3.5-2 6.8-4.4 3.9-2.8 6.6-4.1 7.5-3.6 1.7.9 8.9 1.9 17.9 2.6 8.9.7 10 .7 11.5-.6 1.9-1.6 3.4-6.5 2.5-8-.4-.7-.2-3.3.5-5.9.6-2.5 1.3-8 1.4-12.1.2-8.6 1.3-10 9.1-12.1 4.8-1.3 7-2.6 7-4.1 0-1.6-4.3-2.5-8-1.7-5.1 1.3-14 .1-14-1.8 0-1.2-.3-1.3-1.4-.4-.7.6-2 .9-2.9.5-1.2-.4-1.4-.1-1 1.5.3 1.2 0 2.8-.7 3.6-1 1.3-.9 1.5.9 1.5 1.1 0 2.1.4 2.1 1 0 .5.5 1 1 1 .6 0 1-.7 1-1.5s.5-1.5 1-1.5c1.4 0 .2 4.3-2.6 10-2.1 4.2-4 10.5-4.6 15.6-.3 2.1-.5 2-7.8-1.5-6-2.9-7.6-4.1-7.8-6.1-.3-2.1-5.4-13.9-9.5-21.9-1.3-2.6-4.8-4-8.1-3.3zM109 273c-.9.6-.8 1 .5 1.7 1.5.9 1.4 1.5-1.4 7.1-2.5 5-3.4 5.9-5.1 5.5-3.9-1-2 1.7 3 4.2 3.5 1.8 5 2.1 5 1.2 0-.7-.5-1.8-1.2-2.5-1.8-1.8 4-12.5 6.4-11.8 1.1.2 1.8-.1 1.8-1 0-1.7-7.4-5.4-9-4.4zM299.4 274.4c-3.9 2-5.1 4.9-1.6 3.9 1.2-.3 2.3.7 3.6 3.2 1.1 1.9 1.7 3.7 1.5 3.9-.2.3-3-1.1-6.2-3.1-4.8-2.9-6.2-3.3-8.5-2.5-3.1 1-4.5 4.4-1.4 3.5 1.6-.4 2.3.6 4.2 5.7 1.8 4.9 2 6.4 1 7-.7.4-1.1 1.2-.9 1.8.3.7 2.2.3 5.2-1 5.1-2.2 6.1-3.8 2.4-3.8-1.7 0-2.7-1-4-3.7-.9-2-1.5-3.9-1.2-4.1.4-.4 8.6 3.8 9.5 4.9 1 1.2 4.5 1.8 5.9 1 1.1-.7.6-2.3-2.5-8.2-2.6-4.9-3.4-7.4-2.6-7.7 1.3-.4 1.7-3.3.5-3.1-.5.1-2.6 1.1-4.9 2.3zM121.2 280.6c-3.3 2.3-2.7 5.2 2 9.5 4 3.7 4.2 4 2.5 5.6-1.6 1.6-1.8 1.6-4.4-.4-1.6-1.1-2.7-2.7-2.5-3.6.5-2.9-2.6-2.7-3.7.3-.9 2.8-.8 3 4.4 5.6 4.6 2.4 5.8 2.6 7.9 1.6 1.4-.6 2.8-2.3 3.2-3.9.6-2.3.1-3.2-3.4-6.3-4.5-3.8-5.1-5.4-2.7-6.4 2.4-.9 4.3.3 5.4 3.7 1.2 3.2 2.4 2.9 3.5-1 .6-1.7 0-2.4-2.6-3.8-4.8-2.4-7.1-2.7-9.6-.9zM273.1 285.3c-3.5 1.2-5.4 3.7-2.9 3.7 1.1 0 1.4 1.4 1.1 6.7-.2 3.8-.8 7.2-1.4 7.7-.5.6-.9 1.5-.9 2.2 0 .8 1.3.7 4.5-.5 2.5-.9 4.5-2.2 4.5-2.9 0-.9-.7-1.1-2-.7-3.5 1.1-2.3-2 1.5-3.7 2.9-1.3 3.7-1.3 4.6-.2.9 1.1.7 1.5-.5 2-.9.3-1.6 1-1.6 1.5 0 1.2 4.7 1.1 5.5-.1.3-.6 1.5-1 2.6-1 1 0 1.9-.7 1.9-1.5s-.8-1.5-1.8-1.5c-2.5 0-10.4-9.4-9.6-11.4.7-1.9-.7-2-5.5-.3zm4.2 6.3c2.1 2.8 2 3.1-.7 3.6-1.5.2-2-.4-2.2-3-.3-3.8.5-4 2.9-.6zM137 285.6c0 .4.6 1.2 1.4 1.8 1.1.9 1.1 2.1-.6 7.2-1.7 5.3-2.3 6.1-4 5.6-1.5-.3-1.9-.1-1.6.9.5 1.6 13.6 6.2 15.5 5.4 1.5-.5 1.8-5.5.3-5.5-.5 0-1.3.7-1.8 1.5-.6 1.3-1.4 1.3-3.9.5l-3.1-1.1 2.1-6.5c1.7-5.3 2.4-6.3 3.9-5.8 1.2.3 1.8 0 1.8-.9 0-.7-1.7-1.9-3.9-2.5-4.3-1.3-6.1-1.5-6.1-.6zM257.9 289.7c-1 .2-2.2 2.4-2.9 5.1-1.8 6.7-1.8 6.7-5.3 2.3-3.1-3.9-5.6-4.8-9.1-3.5-2.2.8-2 2.4.3 2.4 1.5 0 2 1 2.5 5 .4 2.8.9 5.7 1.2 6.5.4.9-.2 1.8-1.7 2.3-3.5 1.4-.5 2.4 4.6 1.6 3-.4 4.5-1.1 4.5-2.1 0-.9-.6-1.3-1.5-1-1.8.7-2.2.1-3.4-5.4l-1-4.4 3.9 4.3c3.5 3.9 4 4.1 4.8 2.5.6-1 1.4-3.6 1.8-5.8.6-3.5.8-3.7 1.5-1.6 1.8 4.8 1.8 7.4.1 8.7-2.8 2.1-.6 2.7 4.8 1.4 3-.7 4.9-1.7 4.7-2.4-.2-.6-1.1-1-2-.8-1.5.2-2.1-.9-3.3-6-.3-1.3-.8-3.3-1.1-4.5-.4-1.5 0-2.5 1.1-2.9.9-.3 1.3-1 1-1.5-.5-.9-2.6-1-5.5-.2zM154.5 290.9c-.3.6.1 1.4 1 1.7 1.2.5 1.5 1.4 1 3.3-2.2 9.2-2.6 10.1-4.5 10.1-4.4 0-1.5 1.9 5.3 3.5 10.8 2.4 10.9 2.5 10.4 1.2-.2-.7 0-2 .5-3 .7-1.3.4-1.7-1.2-1.7-1.1 0-2 .6-2 1.4 0 1.2-.7 1.3-3.1.6-4.1-1.2-4.3-1.4-3.5-4.5.8-3 2.2-3.3 3.1-.4 1 3.1 2.9 1.7 3.3-2.4.3-3.5-.9-4.9-2.3-2.7-1.1 1.8-2.6 1-2.3-1.3.4-2.9 5.8-3.4 6.5-.6.7 2.7 3 2.3 3.5-.5.4-2-.1-2.4-4.1-3.4-8.8-2.1-10.9-2.3-11.6-1.3zM189.2 296.6c-3.8 1.6-6.6 7-5.6 10.9 2.4 9.7 20 9.9 21.8.2 1.7-8.9-7.1-15-16.2-11.1zm10.3 3.9c3.8 3.7 3.2 8.6-1.4 10.9-1.4.7-3 1.2-3.6 1.1-5.3-.6-8.4-5.1-6.6-9.7 1.9-5.2 7.7-6.3 11.6-2.3zM215.1 295.8c-4.5.2-6.1.7-6.1 1.7 0 .8.6 1.5 1.4 1.5 1.1 0 1.5 1.7 1.8 6.5.3 6-.1 7-2.4 6.6-.5 0-.8.6-.8 1.5 0 1.2 1.1 1.5 5.5 1.3 3.8-.2 5.5-.7 5.5-1.6 0-.7-.9-1.3-2.1-1.3-1.6 0-2-.5-1.7-2.7.3-2.9 2.8-4.5 2.8-1.8 0 .9.6 1.5 1.3 1.2 1.2-.4 1.4-6.3.2-7.5-.3-.3-1.2.3-2 1.4-1.2 1.5-1.6 1.6-2.4.5-.5-.7-.7-2.1-.4-3 .5-2.1 6-2.2 7.2-.2 1.3 2 2.9.5 2.4-2.3-.3-1.6-1.1-2.4-2.3-2.3-.9.1-4.5.3-7.9.5z"/></svg>